<svg viewBox="0 0 294 108" fill="none" xmlns="http://www.w3.org/2000/svg">
<path fill-rule="evenodd" clip-rule="evenodd" d="M216.806 61.223H223.617V77.393H213.903C206.905 77.393 201.49 75.8503 197.656 72.765C193.823 69.6797 191.906 64.3827 191.906 56.8738V31.0018L176.795 31.2586V15.4232L191.906 15.1663L192.021 6.75862L211 0V15.1663H223.319L223.505 15.6348V31.0018H211V56.8738C211 59.7733 212.935 61.223 216.806 61.223ZM223.505 15.1663V15.6348L247.55 76.1663L234.262 107.057H254.249L294 15.1663H274.013L258.827 55.8701L244.981 15.1663H223.505ZM19.0938 15.1663V24.3108C23.0391 17.7684 29.3292 14.4972 37.9643 14.4972C42.5796 14.4972 46.6923 15.5381 50.3027 17.6197C53.913 19.7014 56.7231 22.6752 58.733 26.5411C61.0406 22.8982 64.0368 19.9802 67.7216 17.787C71.4064 15.5938 75.5192 14.4972 80.06 14.4972C87.6529 14.4972 93.6825 16.8391 98.1489 21.5228C102.615 26.2066 104.848 32.7117 104.848 41.0383V77.393H85.8663V43.6032C85.8663 39.5886 84.8056 36.4847 82.684 34.2915C80.5625 32.0984 77.6407 31.0018 73.9187 31.0018C70.1967 31.0018 67.275 32.0984 65.1534 34.2915C63.0319 36.4847 61.9711 39.5886 61.9711 43.6032V77.393H42.989V43.6032C42.989 39.5886 41.9282 36.4847 39.8067 34.2915C37.6851 32.0984 34.7634 31.0018 31.0414 31.0018C27.3194 31.0018 24.3977 32.0984 22.2761 34.2915C20.1546 36.4847 19.0938 39.5886 19.0938 43.6032V77.393H0V15.1663H19.0938Z" fill="white"/>
<path d="M128.182 85.9944C133.178 87.9719 138.525 89 144 89C167.748 89 187 69.7482 187 46C187 22.2518 167.748 3 144 3C120.252 3 101 22.2518 101 46C101 52.0705 102.264 57.9805 104.679 63.4237C106.756 68.1058 112.236 70.2176 116.918 68.1405C121.6 66.0633 123.712 60.5839 121.634 55.9018C120.265 52.8158 119.549 49.4669 119.549 46C119.549 32.4961 130.496 21.549 144 21.549C157.504 21.549 168.451 32.4961 168.451 46C168.451 59.5039 157.504 70.451 144 70.451C140.872 70.451 137.84 69.868 135.008 68.7471C130.245 66.8621 124.856 69.195 122.971 73.9577C121.086 78.7205 123.419 84.1095 128.182 85.9944Z" fill="#82D331"/>
</svg>
