<svg viewBox="0 0 294 98" fill="none" xmlns="http://www.w3.org/2000/svg">
<path fill-rule="evenodd" clip-rule="evenodd" d="M223.617 61.223H216.806C212.935 61.223 211 59.7733 211 56.8738V31.0018H223.505V15.6348L247.55 76.1663L238.158 98H258.167L294 15.1663H274.013L258.827 55.8701L244.981 15.1663H223.505V15.6348L223.319 15.1663H211V0L192.021 6.75862L191.906 15.1663L176.795 15.4232V31.2586L191.906 31.0018V56.8738C191.906 64.3827 193.823 69.6797 197.656 72.765C201.49 75.8503 206.905 77.393 213.903 77.393H223.617V61.223ZM19.0938 24.3108V15.1663H0V77.393H19.0938V43.6032C19.0938 39.5886 20.1546 36.4847 22.2761 34.2915C24.3977 32.0984 27.3194 31.0018 31.0414 31.0018C34.7634 31.0018 37.6851 32.0984 39.8067 34.2915C41.9282 36.4847 42.989 39.5886 42.989 43.6032V77.393H61.9711V43.6032C61.9711 39.5886 63.0319 36.4847 65.1534 34.2915C67.275 32.0984 70.1967 31.0018 73.9187 31.0018C77.6407 31.0018 80.5625 32.0984 82.684 34.2915C84.8056 36.4847 85.8663 39.5886 85.8663 43.6032V77.393H104.848V41.0383C104.848 32.7117 102.615 26.2066 98.1489 21.5228C93.6825 16.8391 87.6529 14.4972 80.06 14.4972C75.5192 14.4972 71.4064 15.5938 67.7216 17.787C64.0368 19.9802 61.0406 22.8982 58.733 26.5411C56.7231 22.6752 53.913 19.7014 50.3027 17.6197C46.6923 15.5381 42.5796 14.4972 37.9643 14.4972C29.3292 14.4972 23.0391 17.7684 19.0938 24.3108Z" fill="#283049"/>
<path d="M128.182 85.9944C133.178 87.9719 138.525 89 144 89C167.748 89 187 69.7482 187 46C187 22.2518 167.748 3 144 3C120.252 3 101 22.2518 101 46C101 52.0705 102.264 57.9805 104.679 63.4237C106.756 68.1058 112.236 70.2176 116.918 68.1405C121.6 66.0633 123.712 60.5839 121.634 55.9018C120.265 52.8158 119.549 49.4669 119.549 46C119.549 32.4961 130.496 21.549 144 21.549C157.504 21.549 168.451 32.4961 168.451 46C168.451 59.5039 157.504 70.451 144 70.451C140.872 70.451 137.84 69.868 135.008 68.7471C130.245 66.8621 124.856 69.195 122.971 73.9577C121.086 78.7205 123.419 84.1095 128.182 85.9944Z" fill="#82D331"/>
</svg>
