<svg viewBox="0 0 274 406" fill="none" xmlns="http://www.w3.org/2000/svg">
<path d="M129.059 389.951C152.414 399.194 177.409 404 203 404C314.009 404 404 314.009 404 203C404 91.9908 314.009 2 203 2C91.9908 2 2 91.9908 2 203C2 231.376 7.90961 259.002 19.1973 284.446C28.9066 306.332 54.5199 316.203 76.406 306.494C98.2922 296.784 108.163 271.171 98.454 249.285C92.0546 234.86 88.7059 219.206 88.7059 203C88.7059 139.877 139.877 88.7059 203 88.7059C266.123 88.7059 317.294 139.877 317.294 203C317.294 266.123 266.123 317.294 203 317.294C188.379 317.294 174.205 314.569 160.966 309.329C138.703 300.518 113.513 311.423 104.702 333.686C95.8906 355.949 106.796 381.14 129.059 389.951Z" stroke="#EFF0F6" stroke-width="3"/>
</svg>
