<svg  viewBox="0 0 372 372" fill="none" xmlns="http://www.w3.org/2000/svg">
  <path d="M13.9309 117.944C5.42321 139.441 1.00002 162.446 1.00002 186C1.00002 288.173 83.8273 371 186 371C288.173 371 371 288.173 371 186C371 83.8273 288.173 0.999996 186 0.999992C159.883 0.999991 134.456 6.43919 111.038 16.8283C90.8936 25.7648 81.8081 49.3392 90.7446 69.4831C99.681 89.6271 123.255 98.7126 143.399 89.7761C156.676 83.886 171.084 80.8039 186 80.8039C244.098 80.8039 291.196 127.902 291.196 186C291.196 244.098 244.098 291.196 186 291.196C127.902 291.196 80.8039 244.098 80.8039 186C80.8039 172.543 83.3121 159.498 88.1347 147.312C96.2444 126.821 86.2075 103.636 65.7167 95.5263C45.2259 87.4167 22.0406 97.4536 13.9309 117.944Z" fill="#B0F222" stroke="#B0F222" stroke-width="2"/>
</svg>
